<svg version="1" xmlns="http://www.w3.org/2000/svg" width="933.333" height="933.333" viewBox="0 0 700.000000 700.000000"><path d="M326.2 2.2c-6.2 3.9-6.9 11-2 17.9 1.8 2.4 3.5 4.6 3.8 4.9 2 1.8 9.9 16.1 12.1 21.9 2.2 5.8 1.8 16.9-.9 22.2-4.7 9.5-16.4 19-36.3 29.1-10.6 5.4-12.3 6.2-35.9 16.4-15.2 6.5-20.7 9.8-26.5 15.9-6.2 6.5-8.6 11.8-9.2 20.6-.4 6.1-.1 9 1.6 14.2 4.9 15.3 18.3 32.1 38.5 48.5 3.9 3.1 7.3 5.9 7.6 6.3.3.3 4.1 3 8.5 5.9 4.4 3 8.2 5.7 8.5 6.1.3.3 6.4 4.1 13.5 8.3 15.9 9.4 38 20.6 55.7 28.2 12.5 5.3 42.3 15.8 47.8 16.8 1.4.2 5.2 1.1 8.5 1.9 14.4 3.6 29.5 5.1 34 3.2 7.3-2.9 17.3-20.5 22.6-39.5 4-14.5 5.2-29.6 3.6-44.5-2.9-26.6-17-49.5-40.3-65.4-4.3-3-8.1-5.6-8.3-5.7-.2-.2.8-3 2.2-6.2 8.6-19.1 8.7-43.7.4-62.6-9.6-22-31.1-43.1-55.2-54.1-4.4-2.1-8.9-4.1-10-4.6-6.5-3.1-23.6-6.8-33-7.4-6.9-.3-8.5-.1-11.3 1.7zM248 234.8c-8.2 4.1-26.2 38.8-29.5 56.7-.3 1.6-.8 4.6-1.1 6.5-1.6 8.8-1.1 24.5 1.1 35.5 2.6 13.6 15.4 38.6 20.2 39.6 1 .2 54.9.4 119.7.3h117.9l1.8-2.3c1-1.3 2.8-5.1 3.8-8.6 5-16-2.3-31.6-19-40.5-8-4.2-13.9-5.9-24.4-7-13-1.3-15.6-1.8-29.5-5.1-14.4-3.4-37.8-11.2-53-17.6-5.8-2.5-11.8-5-13.5-5.6-1.6-.6-11.1-5.3-21-10.3-27.3-13.8-43.7-24.2-56.5-36-3.9-3.5-7.6-6.4-8.3-6.5-.6 0-2.1-.2-3.3-.4-1.1-.3-3.6.3-5.4 1.3zM255.5 397c-6.9 1.2-9.1-6.3 42.3 148.3 26 78.2 47.7 143 48.3 143.9.5 1 .9 2.4.9 3.1 0 .7 1.3 2.6 3 4.2 2.2 2.1 4.1 2.9 7.5 3.1 3.9.2 5-.2 7.8-2.9 3-3 7.1-14.6 51.6-148.4 35.7-107.1 48.2-145.8 47.7-147.7-.4-1.7-1.6-2.8-3.4-3.3-3.1-.8-201.2-1.1-205.7-.3z"/></svg>